Coordinates
version=1
nRows=12
nColumns=33
inDegrees=yes

Units are S.I. units (second, meters, Newtons, ...)
Angles are in degrees.

endheader
time	ground_thorax_rot_x	ground_thorax_rot_y	ground_thorax_rot_z	ground_thorax_tx	ground_thorax_ty	ground_thorax_tz	clav_prot_r	clav_elev_r	scapula_abduction_r	scapula_elevation_r	scapula_upward_rot_r	scapula_winging_r	shoulder_elv_r	plane_of_elev_r	axial_rot_r	elbow_flexion_r	pro_sup_r	wrist_flex_r	wrist_dev_r	clav_prot_l	clav_elev_l	scapula_abduction_l	scapula_elevation_l	scapula_upward_rot_l	scapula_winging_l	shoulder_elv_l	plane_of_elev_l	axial_rot_l	elbow_flexion_l	pro_sup_l	wrist_flex_l	wrist_dev_l
      5.90000000	     90.00000000	    -90.00000000	    -90.00000000	   -207.28951961	    886.79810601	     -3.26107103	    -45.00000000	     -5.41433658	    -32.84230543	      6.29487115	    -45.00000000	   1691.72778599	  -2048.85807261	     28.76666526	    179.99999979	    373.44895800	     68.14892427	     25.97432775	      9.54157548	     20.33305229	     37.86395690	    -45.00000000	    -45.00000000	     18.36807352	  -2141.00253526	   -773.01930662	    141.47344378	     -2.80692929	    371.89400432	     38.29354607	      7.44370824	    -22.85618227
      5.91000000	     90.00000000	    -90.00000000	    -90.00000000	   -205.03471349	    888.30004531	     -3.12825624	    -45.00000000	     -5.94435455	    -33.01028419	      5.94810440	    -45.00000000	   1691.54268744	  -2049.11576339	     28.66475686	    179.99999979	    373.68124422	     68.75653186	     25.95679224	      9.33444434	     20.47985150	     37.89259454	    -45.00000000	    -45.00000000	     18.21338464	  -2141.06196177	   -773.07633567	    141.52892629	     -2.59617166	    371.93399484	     38.88707333	      7.29400182	    -22.84529731
      5.92000000	     90.00000000	    -90.00000000	    -90.00000000	   -202.63787936	    889.88279822	     -3.00732464	    -45.00000000	     -6.21156892	    -33.22148830	      5.68287469	    -45.00000000	   1691.45534987	  -2049.34259742	     28.54248168	    179.99999979	    373.87782597	     69.29786803	     26.01658422	      9.18128970	     20.63083872	     37.95266266	    -45.00000000	    -45.00000000	     17.99579671	  -2141.11459353	   -773.20259029	    141.61855545	     -2.30541163	    372.03700467	     39.46999987	      7.13460235	    -22.84553253
      5.93000000	     90.00000000	    -90.00000000	    -90.00000000	   -200.10442172	    891.51767732	     -2.89557341	    -45.00000000	     -6.53212785	    -33.43292902	      5.43710095	    -45.00000000	   1691.38282918	  -2049.62122563	     28.40345803	    179.99999979	    374.08405281	     69.78003327	     26.03590738	      9.02247093	     20.79070113	     38.01650366	    -45.00000000	    -45.00000000	     17.76961274	  -2141.16269697	   -773.33573058	    141.72223372	     -1.93811700	    372.12105131	     40.05349799	      6.98312652	    -22.84587010
      5.94000000	     90.00000000	    -90.00000000	    -90.00000000	   -197.44220330	    893.17264294	     -2.79086268	    -45.00000000	     -6.81698017	    -33.67028219	      5.18445291	    -45.00000000	   1691.32518513	  -2049.90962678	     28.22479328	    179.99999979	    374.28755518	     70.21731592	     26.02597123	      8.86461047	     20.95923896	     38.08291015	    -45.00000000	    -45.00000000	     17.54762523	  -2141.21968391	   -773.46726507	    141.83863225	     -1.49057578	    372.22697898	     40.62503128	      6.83334836	    -22.85314784
      5.95000000	     90.00000000	    -90.00000000	    -90.00000000	   -194.65884786	    894.81331181	     -2.69232095	    -45.00000000	     -6.97359955	    -33.91675260	      5.01168756	    -45.00000000	   1691.32160403	  -2050.27299400	     28.04087128	    179.99999979	    374.48425252	     70.64201347	     26.05841477	      8.72459792	     21.12726591	     38.17370002	    -45.00000000	    -45.00000000	     17.29223880	  -2141.25965590	   -773.59814634	    141.98200166	     -0.99438015	    372.28681800	     41.20283879	      6.70991500	    -22.86600293
      5.96000000	     90.00000000	    -90.00000000	    -90.00000000	   -191.76133135	    896.40352775	     -2.60087511	    -45.00000000	     -7.18101742	    -34.14832886	      4.81080353	    -45.00000000	   1691.26153705	  -2050.62867147	     27.87781934	    179.99999979	    374.69019899	     71.02439415	     26.05613810	      8.57325898	     21.30713216	     38.25224002	    -45.00000000	    -45.00000000	     17.02788547	  -2141.29681514	   -773.73875207	    142.12939111	     -0.43224313	    372.37168870	     41.74154146	      6.58410112	    -22.88088683
      5.97000000	     90.00000000	    -90.00000000	    -90.00000000	   -188.75202771	    897.90806163	     -2.51853091	    -45.00000000	     -7.35302128	    -34.39746792	      4.64501392	    -45.00000000	   1691.24916620	  -2050.97901194	     27.67000795	    179.99999979	    374.89883435	     71.35541971	     26.00270358	      8.40692179	     21.49448960	     38.33261414	    -45.00000000	    -45.00000000	     16.76733122	  -2141.32138492	   -773.89510071	    142.28491183	      0.17439597	    372.42738012	     42.22379108	      6.47412707	    -22.89180734
      5.98000000	     90.00000000	    -90.00000000	    -90.00000000	   -185.63291920	    899.29121602	     -2.44747697	    -45.00000000	     -7.66624445	    -34.62840294	      4.49339246	    -45.00000000	   1691.17092350	  -2051.38091999	     27.51537619	    179.99999979	    375.09083044	     71.63323080	     25.88437131	      8.22975189	     21.69238346	     38.38712848	    -45.00000000	    -45.00000000	     16.51483648	  -2141.36023957	   -774.07267356	    142.44068874	      0.85016041	    372.56171667	     42.59748129	      6.34943297	    -22.90643985
      5.99000000	     90.00000000	    -90.00000000	    -90.00000000	   -182.40412715	    900.51886328	     -2.38915080	    -45.00000000	     -7.69411352	    -34.90854982	      4.19867624	    -45.00000000	   1691.08723512	  -2051.60475769	     27.25545716	    179.99999979	    375.28087322	     71.85048148	     25.84643361	      8.08756918	     21.88879365	     38.46465390	    -45.00000000	    -45.00000000	     16.27199856	  -2141.35896510	   -774.23089680	    142.60108322	      1.52572352	    372.56768196	     42.89898294	      6.27257011	    -22.91160927
      6.00000000	     90.00000000	    -90.00000000	    -90.00000000	   -179.06879557	    901.55733897	     -2.34416017	    -45.00000000	     -7.65830360	    -35.17297805	      4.31490101	    -45.00000000	   1691.18022885	  -2052.19185673	     27.10594502	    179.99999979	    375.46794759	     72.07465755	     25.79085770	      7.92925254	     22.07356647	     38.59194922	    -45.00000000	    -45.00000000	     15.98544834	  -2141.34194763	   -774.40646829	    142.77908043	      2.19375903	    372.61711256	     43.12358235	      6.22069597	    -22.94164991
      6.01000000	     90.00000000	    -90.00000000	    -90.00000000	   -175.62874127	    902.37562702	     -2.31212534	    -45.00000000	     -7.80863673	    -35.42344885	      4.25367227	    -45.00000000	   1691.13450260	  -2052.64211864	     26.90541541	    179.99999979	    375.62054578	     72.23493802	     25.64116084	      7.76703287	     22.27330833	     38.67034388	    -45.00000000	    -45.00000000	     15.72845678	  -2141.30889083	   -774.57301913	    142.96347819	      2.91898237	    372.65682970	     43.23120656	      6.17332170	    -22.96104308
